{
	"asset":{
		"generator":"Khronos glTF Blender I/O v4.5.48",
		"version":"2.0"
	},
	"scene":0,
	"scenes":[
		{
			"name":"Scene",
			"nodes":[
				0,
				1,
				2,
				3,
				4,
				5,
				6
			]
		}
	],
	"nodes":[
		{
			"mesh":0,
			"name":"Cube",
			"rotation":[
				0,
				1,
				0,
				0
			],
			"scale":[
				-0.23268729448318481,
				-2.192225456237793,
				-1.0922319889068604
			]
		},
		{
			"mesh":1,
			"name":"Icosphere",
			"scale":[
				0.33077573776245117,
				0.33077573776245117,
				0.33077573776245117
			],
			"translation":[
				-0.03541964292526245,
				1.2996379137039185,
				-0.6096013784408569
			]
		},
		{
			"mesh":2,
			"name":"Icosphere.001",
			"scale":[
				0.33077573776245117,
				0.33077573776245117,
				0.33077573776245117
			],
			"translation":[
				-0.03541964292526245,
				1.2996379137039185,
				0.5652586221694946
			]
		},
		{
			"mesh":3,
			"name":"Icosphere.002",
			"scale":[
				0.33077573776245117,
				0.33077573776245117,
				0.33077573776245117
			],
			"translation":[
				-0.03541964292526245,
				-0.0995018482208252,
				-0.6096013784408569
			]
		},
		{
			"mesh":4,
			"name":"Icosphere.003",
			"scale":[
				0.33077573776245117,
				0.33077573776245117,
				0.33077573776245117
			],
			"translation":[
				-0.03541964292526245,
				-1.4334999322891235,
				-0.6096013784408569
			]
		},
		{
			"mesh":5,
			"name":"Icosphere.004",
			"scale":[
				0.33077573776245117,
				0.33077573776245117,
				0.33077573776245117
			],
			"translation":[
				-0.03541964292526245,
				-1.4334999322891235,
				0.5089532136917114
			]
		},
		{
			"mesh":6,
			"name":"Icosphere.005",
			"scale":[
				0.33077573776245117,
				0.33077573776245117,
				0.33077573776245117
			],
			"translation":[
				-0.03541964292526245,
				-0.0995018482208252,
				0.5402495861053467
			]
		}
	],
	"materials":[
		{
			"doubleSided":true,
			"name":"Material",
			"pbrMetallicRoughness":{
				"baseColorFactor":[
					0.800000011920929,
					0.800000011920929,
					0.800000011920929,
					1
				],
				"metallicFactor":0,
				"roughnessFactor":0.5
			}
		}
	],
	"meshes":[
		{
			"name":"Cube",
			"primitives":[
				{
					"attributes":{
						"POSITION":0,
						"NORMAL":1,
						"TEXCOORD_0":2
					},
					"indices":3,
					"material":0
				}
			]
		},
		{
			"name":"Icosphere",
			"primitives":[
				{
					"attributes":{
						"POSITION":4,
						"NORMAL":5,
						"TEXCOORD_0":6
					},
					"indices":7
				}
			]
		},
		{
			"name":"Icosphere.001",
			"primitives":[
				{
					"attributes":{
						"POSITION":8,
						"NORMAL":9,
						"TEXCOORD_0":10
					},
					"indices":7
				}
			]
		},
		{
			"name":"Icosphere.002",
			"primitives":[
				{
					"attributes":{
						"POSITION":11,
						"NORMAL":12,
						"TEXCOORD_0":13
					},
					"indices":7
				}
			]
		},
		{
			"name":"Icosphere.003",
			"primitives":[
				{
					"attributes":{
						"POSITION":14,
						"NORMAL":15,
						"TEXCOORD_0":16
					},
					"indices":7
				}
			]
		},
		{
			"name":"Icosphere.004",
			"primitives":[
				{
					"attributes":{
						"POSITION":17,
						"NORMAL":18,
						"TEXCOORD_0":19
					},
					"indices":7
				}
			]
		},
		{
			"name":"Icosphere.005",
			"primitives":[
				{
					"attributes":{
						"POSITION":20,
						"NORMAL":21,
						"TEXCOORD_0":22
					},
					"indices":7
				}
			]
		}
	],
	"accessors":[
		{
			"bufferView":0,
			"componentType":5126,
			"count":24,
			"max":[
				1,
				1,
				1
			],
			"min":[
				-1,
				-1,
				-1
			],
			"type":"VEC3"
		},
		{
			"bufferView":1,
			"componentType":5126,
			"count":24,
			"type":"VEC3"
		},
		{
			"bufferView":2,
			"componentType":5126,
			"count":24,
			"type":"VEC2"
		},
		{
			"bufferView":3,
			"componentType":5123,
			"count":36,
			"type":"SCALAR"
		},
		{
			"bufferView":4,
			"componentType":5126,
			"count":240,
			"max":[
				0.9510578513145447,
				1,
				0.9999999403953552
			],
			"min":[
				-0.9510578513145447,
				-1,
				-0.9999999403953552
			],
			"type":"VEC3"
		},
		{
			"bufferView":5,
			"componentType":5126,
			"count":240,
			"type":"VEC3"
		},
		{
			"bufferView":6,
			"componentType":5126,
			"count":240,
			"type":"VEC2"
		},
		{
			"bufferView":7,
			"componentType":5123,
			"count":240,
			"type":"SCALAR"
		},
		{
			"bufferView":8,
			"componentType":5126,
			"count":240,
			"max":[
				0.9510578513145447,
				1,
				0.9999999403953552
			],
			"min":[
				-0.9510578513145447,
				-1,
				-0.9999999403953552
			],
			"type":"VEC3"
		},
		{
			"bufferView":9,
			"componentType":5126,
			"count":240,
			"type":"VEC3"
		},
		{
			"bufferView":10,
			"componentType":5126,
			"count":240,
			"type":"VEC2"
		},
		{
			"bufferView":11,
			"componentType":5126,
			"count":240,
			"max":[
				0.9510578513145447,
				1,
				0.9999999403953552
			],
			"min":[
				-0.9510578513145447,
				-1,
				-0.9999999403953552
			],
			"type":"VEC3"
		},
		{
			"bufferView":12,
			"componentType":5126,
			"count":240,
			"type":"VEC3"
		},
		{
			"bufferView":13,
			"componentType":5126,
			"count":240,
			"type":"VEC2"
		},
		{
			"bufferView":14,
			"componentType":5126,
			"count":240,
			"max":[
				0.9510578513145447,
				1,
				0.9999999403953552
			],
			"min":[
				-0.9510578513145447,
				-1,
				-0.9999999403953552
			],
			"type":"VEC3"
		},
		{
			"bufferView":15,
			"componentType":5126,
			"count":240,
			"type":"VEC3"
		},
		{
			"bufferView":16,
			"componentType":5126,
			"count":240,
			"type":"VEC2"
		},
		{
			"bufferView":17,
			"componentType":5126,
			"count":240,
			"max":[
				0.9510578513145447,
				1,
				0.9999999403953552
			],
			"min":[
				-0.9510578513145447,
				-1,
				-0.9999999403953552
			],
			"type":"VEC3"
		},
		{
			"bufferView":18,
			"componentType":5126,
			"count":240,
			"type":"VEC3"
		},
		{
			"bufferView":19,
			"componentType":5126,
			"count":240,
			"type":"VEC2"
		},
		{
			"bufferView":20,
			"componentType":5126,
			"count":240,
			"max":[
				0.9510578513145447,
				1,
				0.9999999403953552
			],
			"min":[
				-0.9510578513145447,
				-1,
				-0.9999999403953552
			],
			"type":"VEC3"
		},
		{
			"bufferView":21,
			"componentType":5126,
			"count":240,
			"type":"VEC3"
		},
		{
			"bufferView":22,
			"componentType":5126,
			"count":240,
			"type":"VEC2"
		}
	],
	"bufferViews":[
		{
			"buffer":0,
			"byteLength":288,
			"byteOffset":0,
			"target":34962
		},
		{
			"buffer":0,
			"byteLength":288,
			"byteOffset":288,
			"target":34962
		},
		{
			"buffer":0,
			"byteLength":192,
			"byteOffset":576,
			"target":34962
		},
		{
			"buffer":0,
			"byteLength":72,
			"byteOffset":768,
			"target":34963
		},
		{
			"buffer":0,
			"byteLength":2880,
			"byteOffset":840,
			"target":34962
		},
		{
			"buffer":0,
			"byteLength":2880,
			"byteOffset":3720,
			"target":34962
		},
		{
			"buffer":0,
			"byteLength":1920,
			"byteOffset":6600,
			"target":34962
		},
		{
			"buffer":0,
			"byteLength":480,
			"byteOffset":8520,
			"target":34963
		},
		{
			"buffer":0,
			"byteLength":2880,
			"byteOffset":9000,
			"target":34962
		},
		{
			"buffer":0,
			"byteLength":2880,
			"byteOffset":11880,
			"target":34962
		},
		{
			"buffer":0,
			"byteLength":1920,
			"byteOffset":14760,
			"target":34962
		},
		{
			"buffer":0,
			"byteLength":2880,
			"byteOffset":16680,
			"target":34962
		},
		{
			"buffer":0,
			"byteLength":2880,
			"byteOffset":19560,
			"target":34962
		},
		{
			"buffer":0,
			"byteLength":1920,
			"byteOffset":22440,
			"target":34962
		},
		{
			"buffer":0,
			"byteLength":2880,
			"byteOffset":24360,
			"target":34962
		},
		{
			"buffer":0,
			"byteLength":2880,
			"byteOffset":27240,
			"target":34962
		},
		{
			"buffer":0,
			"byteLength":1920,
			"byteOffset":30120,
			"target":34962
		},
		{
			"buffer":0,
			"byteLength":2880,
			"byteOffset":32040,
			"target":34962
		},
		{
			"buffer":0,
			"byteLength":2880,
			"byteOffset":34920,
			"target":34962
		},
		{
			"buffer":0,
			"byteLength":1920,
			"byteOffset":37800,
			"target":34962
		},
		{
			"buffer":0,
			"byteLength":2880,
			"byteOffset":39720,
			"target":34962
		},
		{
			"buffer":0,
			"byteLength":2880,
			"byteOffset":42600,
			"target":34962
		},
		{
			"buffer":0,
			"byteLength":1920,
			"byteOffset":45480,
			"target":34962
		}
	],
	"buffers":[
		{
			"byteLength":47400,
			"uri":"domino.bin"
		}
	]
}
